# xmcd
#
# Track frame offsets:
#	150
#	18188
#	32396
#	45238
#	58946
#	78653
#	90402
#	101357
#	111805
#	130961
#
# Disc length: 1982 seconds
#
# Revision: 2
# Processed by: cddbd v1.5.2PL0 Copyright (c) Steve Scherf et al.
# Submitted via: EasyCDDAExtractor 10.0.2.1
#
DISCID=6e07bc0a
DTITLE=Hank Williams, Jr. - Greatest Hits, Vol. 1
DYEAR=1993
DGENRE=Country
TTITLE0=Family Tradition
TTITLE1=Whiskey Bent And Hell Bound
TTITLE2=Women I've Never Had
TTITLE3=Old Habits
TTITLE4=Kaw-Liga
TTITLE5=Dixie On My Mind
TTITLE6=Texas Women
TTITLE7=The American Dream
TTITLE8=A Country Boy Can Survive
TTITLE9=All My Rowdy Friends (Have Settled Down)
EXTD=
EXTT0=
EXTT1=
EXTT2=
EXTT3=
EXTT4=
EXTT5=
EXTT6=
EXTT7=
EXTT8=
EXTT9=
PLAYORDER=
